<svg xmlns="http://www.w3.org/2000/svg" width="20" height="20" viewBox="0 0 20 20"><g><g ><g><path fill="#b0b8ce" d="M17.708 3.227c.574 0 1.042.459 1.042 1.022v13.492c0 .563-.468 1.022-1.042 1.022H2.292A1.034 1.034 0 0 1 1.25 17.74V4.249c0-.563.468-1.022 1.042-1.022zM20 17.75V4.25C20 3.009 18.972 2 17.708 2H2.292C1.028 2 0 3.009 0 4.25v13.5C0 18.99 1.028 20 2.292 20h15.416C18.972 20 20 18.991 20 17.75z"/></g><g><path fill="#b0b8ce" d="M19.375 8.003H.625C.28 8.003 0 7.705 0 7.337c0-.368.28-.667.625-.667h18.75c.345 0 .625.299.625.667 0 .368-.28.666-.625.666z"/></g><g><path fill="#b0b8ce" d="M4.667 5.333A.667.667 0 0 1 4 4.667v-4a.667.667 0 0 1 1.333 0v4a.667.667 0 0 1-.666.666z"/></g><g><path fill="#b0b8ce" d="M15.337 5.333a.667.667 0 0 1-.667-.666v-4a.667.667 0 0 1 1.333 0v4a.667.667 0 0 1-.666.666z"/></g></g></g></svg>